<?xml version="1.0" encoding="utf-8"?>
<!-- Generator: Adobe Illustrator 21.1.0, SVG Export Plug-In . SVG Version: 6.00 Build 0)  -->
<svg version="1.1" id="Icons" xmlns="http://www.w3.org/2000/svg" xmlns:xlink="http://www.w3.org/1999/xlink" x="0px" y="0px"
	 viewBox="0 0 48 48" style="enable-background:new 0 0 48 48;" xml:space="preserve">
<style type="text/css">
	.st0{opacity:0.15;fill:#45413C;}
	.st1{fill:#FF6196;}
	.st2{fill:#FF87AF;}
	.st3{fill:none;stroke:#45413C;stroke-linecap:round;stroke-linejoin:round;stroke-miterlimit:10;}
	.st4{fill:#FFE500;stroke:#45413C;stroke-linecap:round;stroke-linejoin:round;stroke-miterlimit:10;}
	.st5{fill:#FFE500;}
	.st6{fill:#EBCB00;}
	.st7{fill:#EBCB00;stroke:#45413C;stroke-linecap:round;stroke-linejoin:round;stroke-miterlimit:10;}
	.st8{fill:#FFF48C;}
	.st9{fill:#FFCCDD;stroke:#FFB0CA;stroke-linecap:round;stroke-linejoin:round;stroke-miterlimit:10;}
	.st10{fill:#FFB0CA;stroke:#FF87AF;stroke-linecap:round;stroke-linejoin:round;stroke-miterlimit:10;}
	.st11{opacity:0.7;fill:#FFE5EE;}
	.st12{fill:#009FD9;}
	.st13{fill:#00B8F0;}
	.st14{fill:#656769;}
	.st15{fill:#87898C;}
	.st16{fill:#FF6242;stroke:#45413C;stroke-linecap:round;stroke-linejoin:round;stroke-miterlimit:10;}
	.st17{fill:#4AEFF7;}
	.st18{fill:#00DFEB;}
	.st19{fill:#A6FBFF;}
	.st20{fill:#FFFFFF;}
	.st21{fill:#E5F8FF;}
	.st22{fill:#E5F8FF;stroke:#45413C;stroke-linecap:round;stroke-linejoin:round;stroke-miterlimit:10;}
	.st23{fill:#FFE500;stroke:#EBCB00;stroke-linecap:round;stroke-linejoin:round;stroke-miterlimit:10;}
	.st24{fill:#BDBEC0;}
	.st25{fill:#4ACFFF;}
	.st26{fill:#E8F4FA;stroke:#45413C;stroke-linecap:round;stroke-linejoin:round;stroke-miterlimit:10;}
	.st27{fill:#80DDFF;}
	.st28{fill:#009FD9;stroke:#45413C;stroke-linecap:round;stroke-linejoin:round;stroke-miterlimit:10;}
	.st29{fill:#B8ECFF;}
	.st30{fill:#4ACFFF;stroke:#45413C;stroke-linecap:round;stroke-linejoin:round;stroke-miterlimit:10;}
	.st31{fill:#B8ECFF;stroke:#45413C;stroke-linecap:round;stroke-linejoin:round;stroke-miterlimit:10;}
	.st32{fill:#FFFACF;}
	.st33{fill:#FFF48C;stroke:#45413C;stroke-linecap:round;stroke-linejoin:round;stroke-miterlimit:10;}
	.st34{fill:#BF8256;}
	.st35{fill:#DEA47A;}
	.st36{fill:#656769;stroke:#45413C;stroke-linecap:round;stroke-linejoin:round;stroke-miterlimit:10;}
	.st37{fill:#FF8A14;}
	.st38{fill:#FFAA54;}
	.st39{fill:#EB6D00;}
	.st40{fill:#627B8C;stroke:#45413C;stroke-linecap:round;stroke-linejoin:round;stroke-miterlimit:10;}
	.st41{fill:#FFFFFF;stroke:#45413C;stroke-linecap:round;stroke-linejoin:round;stroke-miterlimit:10;}
	.st42{fill:#E0366F;stroke:#45413C;stroke-linecap:round;stroke-linejoin:round;stroke-miterlimit:10;}
	.st43{fill:#FF87AF;stroke:#45413C;stroke-linecap:round;stroke-linejoin:round;stroke-miterlimit:10;}
	.st44{fill:#E0366F;}
	.st45{fill:#FF6196;stroke:#45413C;stroke-linecap:round;stroke-linejoin:round;stroke-miterlimit:10;}
	.st46{fill:#525252;}
	.st47{fill:#DEBB7E;}
	.st48{fill:#F0D5A8;}
	.st49{fill:#DAEDF7;}
	.st50{fill:#F7E5C6;}
	.st51{fill:#DEBB7E;stroke:#45413C;stroke-linecap:round;stroke-linejoin:round;stroke-miterlimit:10;}
	.st52{fill:#FFF5E3;}
	.st53{fill:#00F5BC;}
	.st54{fill:#FFB0CA;stroke:#45413C;stroke-linecap:round;stroke-linejoin:round;stroke-miterlimit:10;}
	.st55{fill:#8CFFE4;}
	.st56{fill:#00DBA8;}
	.st57{fill:#87898C;stroke:#45413C;stroke-linecap:round;stroke-linejoin:round;stroke-miterlimit:10;}
	.st58{fill:#FF6242;}
	.st59{fill:#FF866E;}
	.st60{fill:#F0F0F0;}
	.st61{fill:#BDBEC0;stroke:#45413C;stroke-width:1.0064;stroke-linecap:round;stroke-linejoin:round;stroke-miterlimit:10;}
	.st62{fill:#947746;stroke:#45413C;stroke-linecap:round;stroke-linejoin:round;stroke-miterlimit:10;}
	.st63{fill:#B89558;}
	.st64{fill:#E04122;}
	.st65{fill:#C0DCEB;}
	.st66{fill:#E8F4FA;}
	.st67{fill:#00B8F0;stroke:#45413C;stroke-linecap:round;stroke-linejoin:round;stroke-miterlimit:10;}
	.st68{fill:#80DDFF;stroke:#45413C;stroke-linecap:round;stroke-linejoin:round;stroke-miterlimit:10;}
	.st69{fill:#9CEB60;}
	.st70{fill:#C8FFA1;}
	.st71{fill:#FFB0CA;}
	.st72{fill:#FFCCDD;}
	.st73{fill:#FFE5EE;}
	.st74{fill:#45413C;stroke:#45413C;stroke-linecap:round;stroke-linejoin:round;stroke-miterlimit:10;}
	.st75{fill:#FFCABF;}
	.st76{fill:#FFA694;}
	.st77{fill:#FFA694;stroke:#45413C;stroke-linecap:round;stroke-linejoin:round;stroke-miterlimit:10;}
	.st78{fill:#FFCC99;}
	.st79{fill:#8CA4B8;}
	.st80{fill:#ADC4D9;}
	.st81{fill:#F0D5A8;stroke:#45413C;stroke-linecap:round;stroke-linejoin:round;stroke-miterlimit:10;}
	.st82{fill:#BDBEC0;stroke:#45413C;stroke-linecap:round;stroke-linejoin:round;stroke-miterlimit:10;}
	.st83{fill:#E0E0E0;}
	.st84{fill:#45413C;}
	.st85{fill:#E5FEFF;}
	.st86{fill:#FFFCE5;}
	.st87{fill:#FFAA54;stroke:#45413C;stroke-linecap:round;stroke-linejoin:round;stroke-miterlimit:10;}
	.st88{fill:#6DD627;}
	.st89{fill:#46B000;}
	.st90{fill:#FFE8E0;}
	.st91{fill:#FFCEBF;}
	.st92{fill:#FFE8D1;}
	.st93{fill:#FFF48C;stroke:#4F4B45;stroke-linecap:round;stroke-linejoin:round;stroke-miterlimit:10;}
	.st94{fill:#FFDCD1;stroke:#4F4B45;stroke-linejoin:round;stroke-miterlimit:10;}
	.st95{fill:none;stroke:#4F4B45;stroke-linejoin:round;stroke-miterlimit:10;}
	.st96{fill:none;stroke:#4F4B45;stroke-linecap:round;stroke-linejoin:round;stroke-miterlimit:10;}
	.st97{fill:#656769;stroke:#4F4B45;stroke-linejoin:round;stroke-miterlimit:10;}
	.st98{fill:#87898C;stroke:#4F4B45;stroke-linecap:round;stroke-linejoin:round;stroke-miterlimit:10;}
	.st99{fill:#C0DCEB;stroke:#4F4B45;stroke-linecap:round;stroke-linejoin:round;stroke-miterlimit:10;}
	.st100{fill:#FFA694;stroke:#4F4B45;stroke-linecap:round;stroke-linejoin:round;stroke-miterlimit:10;}
	.st101{fill:#E04122;stroke:#45413C;stroke-linecap:round;stroke-linejoin:round;stroke-miterlimit:10;}
	.st102{fill:#FFFCE5;stroke:#45413C;stroke-linecap:round;stroke-linejoin:round;stroke-miterlimit:10;}
	.st103{fill:#915E3A;}
	.st104{fill:none;stroke:#915E3A;stroke-linecap:round;stroke-linejoin:round;stroke-miterlimit:10;}
	.st105{fill:#915E3A;stroke:#45413C;stroke-linecap:round;stroke-linejoin:round;stroke-miterlimit:10;}
	.st106{fill:#FF866E;stroke:#45413C;stroke-linecap:round;stroke-linejoin:round;stroke-miterlimit:10;}
	.st107{fill:#FFF5E3;stroke:#45413C;stroke-linecap:round;stroke-linejoin:round;stroke-miterlimit:10;}
	.st108{fill:#FFDCD1;}
	.st109{fill:#FFDCD1;stroke:#45413C;stroke-linecap:round;stroke-linejoin:round;stroke-miterlimit:10;}
	.st110{fill:#F0C2A1;}
	.st111{fill:#FFE3CF;}
	.st112{fill:#FFFACF;stroke:#45413C;stroke-linecap:round;stroke-linejoin:round;stroke-miterlimit:10;}
	.st113{fill:#DEA47A;stroke:#45413C;stroke-linecap:round;stroke-linejoin:round;stroke-miterlimit:10;}
	.st114{fill:#F0C2A1;stroke:#45413C;stroke-linecap:round;stroke-linejoin:round;stroke-miterlimit:10;}
	.st115{fill:#EB6D00;stroke:#45413C;stroke-linecap:round;stroke-linejoin:round;stroke-miterlimit:10;}
	.st116{fill:#FF8A14;stroke:#45413C;stroke-linecap:round;stroke-linejoin:round;stroke-miterlimit:10;}
	.st117{fill:#D9FDFF;}
	.st118{fill:#C8FFA1;stroke:#45413C;stroke-linecap:round;stroke-linejoin:round;stroke-miterlimit:10;}
	.st119{fill:#E4FFD1;}
	.st120{fill:#E0E0E0;stroke:#45413C;stroke-linecap:round;stroke-linejoin:round;stroke-miterlimit:10;}
	.st121{fill:#FFCCDD;stroke:#45413C;stroke-linecap:round;stroke-linejoin:round;stroke-miterlimit:10;}
	.st122{fill:#BF8256;stroke:#45413C;stroke-linecap:round;stroke-linejoin:round;stroke-miterlimit:10;}
	.st123{fill:#C0DCEB;stroke:#45413C;stroke-linecap:round;stroke-linejoin:round;stroke-miterlimit:10;}
</style>
<g id="XMLID_12451_">
	<ellipse id="XMLID_12473_" class="st0" cx="24" cy="45.3" rx="15.5" ry="1.7"/>
	
		<ellipse id="XMLID_12472_" transform="matrix(0.5813 -0.8137 0.8137 0.5813 5.342 33.3521)" class="st14" cx="35.1" cy="11.5" rx="10" ry="8.9"/>
	<path id="XMLID_12471_" class="st15" d="M27.9,8.5c3.2-4.5,9-5.8,13-3c2,1.4,3.1,3.6,3.4,5.9c0.3-3.2-0.8-6.3-3.4-8.2
		c-4-2.8-9.8-1.5-13,3c-1.6,2.3-2.3,4.9-2,7.3C26.1,11.9,26.7,10.1,27.9,8.5z"/>
	
		<ellipse id="XMLID_12470_" transform="matrix(0.5813 -0.8137 0.8137 0.5813 5.342 33.3521)" class="st3" cx="35.1" cy="11.5" rx="10" ry="8.9"/>
	
		<ellipse id="XMLID_12469_" transform="matrix(0.5813 -0.8137 0.8137 0.5813 5.28 33.2315)" class="st83" cx="34.9" cy="11.5" rx="6.8" ry="6.1"/>
	<path id="XMLID_12468_" class="st24" d="M30,10.5c2.2-3.1,6.2-4,8.9-2c1.2,0.9,1.9,2.2,2.2,3.6c0.4-2.4-0.3-4.7-2.2-6.1
		c-2.7-1.9-6.7-1-8.9,2c-1.2,1.7-1.6,3.7-1.3,5.5C28.9,12.4,29.3,11.4,30,10.5z"/>
	
		<ellipse id="XMLID_12467_" transform="matrix(0.5813 -0.8137 0.8137 0.5813 5.28 33.2315)" class="st3" cx="34.9" cy="11.5" rx="6.8" ry="6.1"/>
	
		<ellipse id="XMLID_12466_" transform="matrix(0.8137 -0.5813 0.5813 0.8137 -4.2689 9.6511)" class="st14" cx="12.9" cy="11.5" rx="8.9" ry="10"/>
	<path id="XMLID_12465_" class="st15" d="M20.1,8.5c-3.2-4.5-9-5.8-13-3C5.1,7,4,9.1,3.7,11.5C3.4,8.3,4.5,5.2,7.1,3.4
		c4-2.8,9.8-1.5,13,3c1.6,2.3,2.3,4.9,2,7.3C21.9,11.9,21.3,10.1,20.1,8.5z"/>
	
		<ellipse id="XMLID_12464_" transform="matrix(0.8137 -0.5813 0.5813 0.8137 -4.2689 9.6511)" class="st3" cx="12.9" cy="11.5" rx="8.9" ry="10"/>
	
		<ellipse id="XMLID_12463_" transform="matrix(0.8137 -0.5813 0.5813 0.8137 -4.2413 9.7373)" class="st83" cx="13.1" cy="11.5" rx="6.1" ry="6.8"/>
	<path id="XMLID_12462_" class="st24" d="M18,10.5c-2.2-3.1-6.2-4-8.9-2C7.9,9.3,7.2,10.6,6.9,12C6.4,9.7,7.2,7.3,9.1,5.9
		c2.7-1.9,6.7-1,8.9,2c1.2,1.7,1.6,3.7,1.3,5.5C19.1,12.4,18.7,11.4,18,10.5z"/>
	
		<ellipse id="XMLID_12461_" transform="matrix(0.8137 -0.5813 0.5813 0.8137 -4.2413 9.7373)" class="st3" cx="13.1" cy="11.5" rx="6.1" ry="6.8"/>
	<path class="st60" d="M44.8,25.9C43,14.5,34.2,6.1,24,6.1S5,14.5,3.2,25.9c-1.2,7.8,4.1,15,11.1,15h2c1.9,1.6,4.6,2.7,7.8,2.7
		s5.9-1,7.8-2.7h2C40.7,40.8,46,33.7,44.8,25.9z"/>
	<path id="XMLID_12460_" class="st20" d="M3.2,30.3C5,18.9,13.8,10.6,24,10.6c10.2,0,19,8.3,20.8,19.7c0,0,0,0,0,0
		c0.2-1.4,0.2-2.9,0-4.4C43,14.5,34.2,6.1,24,6.1c-10.2,0-19,8.3-20.8,19.7C3,27.4,3,28.9,3.2,30.3C3.2,30.3,3.2,30.3,3.2,30.3z"/>
	<path class="st3" d="M44.8,25.9C43,14.5,34.2,6.1,24,6.1S5,14.5,3.2,25.9c-1.2,7.8,4.1,15,11.1,15h2c1.9,1.6,4.6,2.7,7.8,2.7
		s5.9-1,7.8-2.7h2C40.7,40.8,46,33.7,44.8,25.9z"/>
	<path id="XMLID_12459_" class="st36" d="M27.9,33.1c0,1.1-1.7,3-3.9,3s-3.9-1.8-3.9-3c0-1.1,1.7-2,3.9-2S27.9,32,27.9,33.1z"/>
	<path id="XMLID_12458_" class="st36" d="M28.1,20.8c-0.9,5.1,3.1,7.7,6.1,8.8c3.1,1.2,4.8-1,4.8-4.1c-0.1-3.1-2-7.3-5.4-8.2
		C30.6,16.6,28.3,19.2,28.1,20.8z"/>
	<circle id="XMLID_12457_" class="st74" cx="31.8" cy="22.8" r="1.7"/>
	<circle id="XMLID_12456_" class="st76" cx="41.4" cy="30.3" r="2"/>
	<path id="XMLID_12455_" class="st36" d="M19.9,20.8c0.9,5.1-3.1,7.7-6.1,8.8c-3.1,1.2-4.8-1-4.8-4.1c0.1-3.1,2-7.3,5.4-8.2
		C17.4,16.6,19.7,19.2,19.9,20.8z"/>
	<circle id="XMLID_12454_" class="st74" cx="16.2" cy="22.8" r="1.7"/>
	<circle id="XMLID_12453_" class="st76" cx="6.6" cy="30.3" r="2"/>
	<line id="XMLID_12452_" class="st3" x1="24" y1="36.1" x2="24" y2="38.3"/>
</g>
</svg>
